<svg width="209" height="10" viewBox="0 0 209 10" fill="none" xmlns="http://www.w3.org/2000/svg">
<rect width="209" height="10" fill="#1E1E1E"/>
<g clip-path="url(#clip0_0_1)">
<rect width="1440" height="2560" transform="translate(-616 -1285)" fill="#EBF0FF"/>
<g opacity="0.5">
<rect opacity="0.7" width="634" height="634" transform="matrix(1 0 0 -1 -274 618)" fill="url(#paint0_radial_0_1)"/>
<rect width="634" height="634" transform="matrix(1 0 0 -1 -17 342)" fill="url(#paint1_radial_0_1)"/>
<rect width="634" height="634" transform="matrix(1 0 0 -1 90 470)" fill="url(#paint2_radial_0_1)"/>
</g>
<path d="M13.5753 -28.0426V-33.1818H35.7046V-28.0426H27.7656V-7H21.527V-28.0426H13.5753ZM36.7561 -7V-26.6364H42.8285V-23.0568H43.033C43.391 -24.3523 43.9748 -25.3153 44.7845 -25.946C45.5941 -26.5852 46.5359 -26.9048 47.6097 -26.9048C47.8995 -26.9048 48.1978 -26.8835 48.5046 -26.8409C48.8115 -26.8068 49.097 -26.7514 49.3612 -26.6747V-21.2415C49.0629 -21.3438 48.6708 -21.4247 48.185 -21.4844C47.7078 -21.544 47.2816 -21.5739 46.9066 -21.5739C46.1651 -21.5739 45.4961 -21.4077 44.8995 -21.0753C44.3115 -20.7514 43.847 -20.2955 43.5061 -19.7074C43.1737 -19.1278 43.0075 -18.446 43.0075 -17.6619V-7H36.7561ZM64.5774 -15.4759V-26.6364H70.8161V-7H64.8587V-10.6562H64.6541C64.2195 -9.45455 63.478 -8.5 62.4297 -7.79261C61.3899 -7.09375 60.1328 -6.74432 58.6584 -6.74432C57.3203 -6.74432 56.1442 -7.05114 55.13 -7.66477C54.1158 -8.27841 53.3274 -9.13494 52.7649 -10.2344C52.2024 -11.3423 51.9169 -12.6378 51.9084 -14.1207V-26.6364H58.1598V-15.348C58.1683 -14.2827 58.4496 -13.4432 59.0036 -12.8295C59.5575 -12.2159 60.3118 -11.9091 61.2664 -11.9091C61.8885 -11.9091 62.4468 -12.0455 62.9411 -12.3182C63.4439 -12.5994 63.8402 -13.0043 64.13 -13.5327C64.4283 -14.0696 64.5774 -14.7173 64.5774 -15.4759ZM91.9386 -20.6406L86.1985 -20.4872C86.1389 -20.8963 85.9769 -21.2585 85.7127 -21.5739C85.4485 -21.8977 85.1034 -22.1491 84.6772 -22.3281C84.2596 -22.5156 83.7738 -22.6094 83.2198 -22.6094C82.4954 -22.6094 81.8775 -22.4645 81.3661 -22.1747C80.8633 -21.8849 80.6161 -21.4929 80.6247 -20.9986C80.6161 -20.6151 80.7695 -20.2827 81.0849 -20.0014C81.4088 -19.7202 81.984 -19.4943 82.8107 -19.3239L86.5948 -18.608C88.5551 -18.233 90.0124 -17.6108 90.967 -16.7415C91.9301 -15.8722 92.4159 -14.7216 92.4244 -13.2898C92.4159 -11.9432 92.0153 -10.7713 91.2227 -9.77415C90.4386 -8.77699 89.3647 -8.00142 88.0011 -7.44744C86.6374 -6.90199 85.0778 -6.62926 83.3221 -6.62926C80.5181 -6.62926 78.3065 -7.20455 76.6872 -8.35511C75.0764 -9.5142 74.1559 -11.0653 73.9258 -13.0085L80.1005 -13.1619C80.2369 -12.446 80.5906 -11.9006 81.1616 -11.5256C81.7326 -11.1506 82.4613 -10.9631 83.3477 -10.9631C84.1488 -10.9631 84.8008 -11.1122 85.3036 -11.4105C85.8065 -11.7088 86.0622 -12.1051 86.0707 -12.5994C86.0622 -13.0426 85.8661 -13.3963 85.4826 -13.6605C85.0991 -13.9332 84.4982 -14.1463 83.6801 -14.2997L80.2539 -14.9517C78.2852 -15.3097 76.8193 -15.9702 75.8562 -16.9332C74.8931 -17.9048 74.4159 -19.1406 74.4244 -20.6406C74.4159 -21.9531 74.7653 -23.0739 75.4727 -24.0028C76.1801 -24.9403 77.1857 -25.6562 78.4897 -26.1506C79.7937 -26.6449 81.332 -26.892 83.1048 -26.892C85.7639 -26.892 87.8605 -26.3338 89.3945 -25.2173C90.9286 -24.1094 91.7767 -22.5838 91.9386 -20.6406ZM106.586 -26.6364V-22.0341H94.1982V-26.6364H106.586ZM96.7933 -31.3409H103.045V-13.1747C103.045 -12.7912 103.104 -12.4801 103.224 -12.2415C103.352 -12.0114 103.535 -11.8452 103.773 -11.7429C104.012 -11.6491 104.298 -11.6023 104.63 -11.6023C104.869 -11.6023 105.12 -11.6236 105.384 -11.6662C105.657 -11.7173 105.862 -11.7599 105.998 -11.794L106.944 -7.28125C106.646 -7.19602 106.224 -7.08949 105.678 -6.96165C105.141 -6.83381 104.498 -6.75284 103.748 -6.71875C102.282 -6.65057 101.025 -6.82102 99.9766 -7.23011C98.9368 -7.64773 98.1399 -8.29545 97.586 -9.1733C97.0405 -10.0511 96.7763 -11.1548 96.7933 -12.4844V-31.3409ZM118.744 -6.62926C116.69 -6.62926 114.917 -7.03409 113.425 -7.84375C111.942 -8.66193 110.8 -9.82528 109.999 -11.3338C109.207 -12.8509 108.81 -14.6534 108.81 -16.7415C108.81 -18.7699 109.211 -20.5426 110.012 -22.0597C110.813 -23.5852 111.942 -24.7699 113.4 -25.6136C114.857 -26.4659 116.575 -26.892 118.552 -26.892C119.95 -26.892 121.228 -26.6747 122.387 -26.2401C123.546 -25.8054 124.548 -25.1619 125.391 -24.3097C126.235 -23.4574 126.891 -22.4048 127.36 -21.152C127.829 -19.9077 128.063 -18.4801 128.063 -16.8693V-15.3097H110.996V-18.9403H122.246C122.238 -19.6051 122.08 -20.1974 121.773 -20.7173C121.467 -21.2372 121.045 -21.642 120.508 -21.9318C119.979 -22.2301 119.37 -22.3793 118.68 -22.3793C117.981 -22.3793 117.354 -22.2216 116.8 -21.9062C116.246 -21.5994 115.808 -21.1776 115.484 -20.6406C115.16 -20.1122 114.989 -19.5114 114.972 -18.8381V-15.1435C114.972 -14.3423 115.13 -13.6392 115.445 -13.0341C115.761 -12.4375 116.208 -11.973 116.788 -11.6406C117.367 -11.3082 118.058 -11.142 118.859 -11.142C119.413 -11.142 119.916 -11.2188 120.367 -11.3722C120.819 -11.5256 121.207 -11.7514 121.531 -12.0497C121.854 -12.348 122.097 -12.7145 122.259 -13.1491L127.999 -12.983C127.761 -11.696 127.237 -10.5753 126.427 -9.62074C125.626 -8.67472 124.573 -7.9375 123.269 -7.40909C121.965 -6.8892 120.457 -6.62926 118.744 -6.62926ZM138.428 -6.71875C136.979 -6.71875 135.662 -7.09375 134.478 -7.84375C133.293 -8.59375 132.347 -9.71875 131.64 -11.2188C130.932 -12.7188 130.578 -14.581 130.578 -16.8054C130.578 -19.1151 130.945 -21.0156 131.678 -22.5071C132.411 -23.9986 133.37 -25.1023 134.554 -25.8182C135.748 -26.5341 137.03 -26.892 138.402 -26.892C139.434 -26.892 140.316 -26.7131 141.049 -26.3551C141.782 -26.0057 142.387 -25.554 142.864 -25C143.341 -24.446 143.703 -23.8707 143.951 -23.2741H144.078V-33.1818H150.33V-7H144.142V-10.1832H143.951C143.686 -9.57812 143.311 -9.01136 142.826 -8.48295C142.34 -7.95455 141.73 -7.52841 140.998 -7.20455C140.273 -6.88068 139.417 -6.71875 138.428 -6.71875ZM140.601 -11.5895C141.36 -11.5895 142.007 -11.8026 142.544 -12.2287C143.081 -12.6634 143.495 -13.2727 143.784 -14.0568C144.074 -14.8409 144.219 -15.7614 144.219 -16.8182C144.219 -17.892 144.074 -18.8168 143.784 -19.5923C143.503 -20.3679 143.09 -20.9645 142.544 -21.3821C142.007 -21.7997 141.36 -22.0085 140.601 -22.0085C139.826 -22.0085 139.169 -21.7955 138.632 -21.3693C138.096 -20.9432 137.686 -20.3423 137.405 -19.5668C137.132 -18.7912 136.996 -17.875 136.996 -16.8182C136.996 -15.7614 137.137 -14.8409 137.418 -14.0568C137.699 -13.2727 138.104 -12.6634 138.632 -12.2287C139.169 -11.8026 139.826 -11.5895 140.601 -11.5895ZM162.018 -7V-33.1818H168.269V-23.2741H168.397C168.653 -23.8707 169.015 -24.446 169.484 -25C169.961 -25.554 170.566 -26.0057 171.299 -26.3551C172.041 -26.7131 172.927 -26.892 173.958 -26.892C175.322 -26.892 176.596 -26.5341 177.781 -25.8182C178.974 -25.1023 179.937 -23.9986 180.67 -22.5071C181.403 -21.0156 181.769 -19.1151 181.769 -16.8054C181.769 -14.581 181.416 -12.7188 180.708 -11.2188C180.009 -9.71875 179.063 -8.59375 177.87 -7.84375C176.685 -7.09375 175.369 -6.71875 173.92 -6.71875C172.931 -6.71875 172.075 -6.88068 171.35 -7.20455C170.626 -7.52841 170.016 -7.95455 169.522 -8.48295C169.036 -9.01136 168.661 -9.57812 168.397 -10.1832H168.205V-7H162.018ZM168.141 -16.8182C168.141 -15.7614 168.282 -14.8409 168.563 -14.0568C168.853 -13.2727 169.266 -12.6634 169.803 -12.2287C170.349 -11.8026 171.001 -11.5895 171.759 -11.5895C172.526 -11.5895 173.178 -11.8026 173.715 -12.2287C174.252 -12.6634 174.657 -13.2727 174.93 -14.0568C175.211 -14.8409 175.352 -15.7614 175.352 -16.8182C175.352 -17.875 175.211 -18.7912 174.93 -19.5668C174.657 -20.3423 174.252 -20.9432 173.715 -21.3693C173.187 -21.7955 172.535 -22.0085 171.759 -22.0085C170.992 -22.0085 170.34 -21.7997 169.803 -21.3821C169.266 -20.9645 168.853 -20.3679 168.563 -19.5923C168.282 -18.8168 168.141 -17.892 168.141 -16.8182ZM188.235 0.363637C187.485 0.363637 186.777 0.303978 186.113 0.184659C185.448 0.0738639 184.877 -0.0752839 184.4 -0.262784L185.78 -4.80114C186.394 -4.59659 186.948 -4.47727 187.442 -4.44318C187.945 -4.40909 188.375 -4.49006 188.733 -4.68608C189.1 -4.87358 189.381 -5.21023 189.577 -5.69602L189.82 -6.28409L182.84 -26.6364H189.385L193.003 -12.625H193.208L196.877 -26.6364H203.461L196.059 -5.12074C195.701 -4.04687 195.194 -3.10085 194.537 -2.28267C193.89 -1.45597 193.05 -0.808239 192.019 -0.339489C190.996 0.129262 189.735 0.363637 188.235 0.363637Z" fill="black"/>
<path d="M2.45029 7.28623C40.6142 3.84683 134.855 -1.31147 206.508 5.57055" stroke="#F0B80D" stroke-width="4" stroke-linecap="round" stroke-linejoin="round"/>
</g>
<defs>
<radialGradient id="paint0_radial_0_1" cx="0" cy="0" r="1" gradientUnits="userSpaceOnUse" gradientTransform="translate(317 317) rotate(90) scale(317)">
<stop stop-color="#B9CEEA"/>
<stop offset="1" stop-color="#F6FBF8" stop-opacity="0"/>
</radialGradient>
<radialGradient id="paint1_radial_0_1" cx="0" cy="0" r="1" gradientUnits="userSpaceOnUse" gradientTransform="translate(317 317) rotate(90) scale(317)">
<stop stop-color="#FAB7B8"/>
<stop offset="1" stop-color="#F6FBF8" stop-opacity="0"/>
</radialGradient>
<radialGradient id="paint2_radial_0_1" cx="0" cy="0" r="1" gradientUnits="userSpaceOnUse" gradientTransform="translate(317 317) rotate(90) scale(317)">
<stop stop-color="#FFDF7C"/>
<stop offset="1" stop-color="#F6FBF8" stop-opacity="0"/>
</radialGradient>
<clipPath id="clip0_0_1">
<rect width="1440" height="2560" fill="white" transform="translate(-616 -1285)"/>
</clipPath>
</defs>
</svg>
